<svg xmlns="http://www.w3.org/2000/svg" xmlns:xlink="http://www.w3.org/1999/xlink" width="500" zoomAndPan="magnify" viewBox="0 0 375 374.999991" height="500" preserveAspectRatio="xMidYMid meet" version="1.0"><defs><g/><clipPath id="d28998ad1f"><path d="M 160.195312 30.40625 L 197.023438 30.40625 L 197.023438 67.238281 L 160.195312 67.238281 Z M 160.195312 30.40625 " clip-rule="nonzero"/></clipPath><clipPath id="c3e4d1a3b2"><rect x="0" width="356" y="0" height="84"/></clipPath><clipPath id="0cce982b50"><path d="M 264 225 L 273 225 L 273 233.996094 L 264 233.996094 Z M 264 225 " clip-rule="nonzero"/></clipPath></defs><g transform="matrix(1, 0, 0, 1, 6, 145)"><g clip-path="url(#c3e4d1a3b2)"><g fill="#73c8d2" fill-opacity="1"><g transform="translate(7.682322, 63.861505)"><g><path d="M -0.359375 11.453125 C -2.222656 11.453125 -3.6875 11.179688 -4.75 10.640625 L -4.75 6.328125 C -3.34375 6.722656 -1.878906 6.921875 -0.359375 6.921875 C 1.609375 6.921875 3.101562 6.328125 4.125 5.140625 C 5.144531 3.953125 5.65625 2.238281 5.65625 0 L 5.65625 -43.46875 L 10.703125 -43.46875 L 10.703125 -0.421875 C 10.703125 3.347656 9.75 6.269531 7.84375 8.34375 C 5.945312 10.414062 3.210938 11.453125 -0.359375 11.453125 Z M -0.359375 11.453125 "/></g></g></g><g fill="#73c8d2" fill-opacity="1"><g transform="translate(23.944072, 63.861505)"><g><path d="M 25.265625 0 L 24.296875 -4.640625 L 24.046875 -4.640625 C 22.421875 -2.597656 20.800781 -1.210938 19.1875 -0.484375 C 17.570312 0.234375 15.554688 0.59375 13.140625 0.59375 C 9.910156 0.59375 7.378906 -0.238281 5.546875 -1.90625 C 3.710938 -3.570312 2.796875 -5.941406 2.796875 -9.015625 C 2.796875 -15.585938 8.054688 -19.035156 18.578125 -19.359375 L 24.109375 -19.53125 L 24.109375 -21.5625 C 24.109375 -24.113281 23.554688 -26 22.453125 -27.21875 C 21.359375 -28.4375 19.601562 -29.046875 17.1875 -29.046875 C 14.46875 -29.046875 11.394531 -28.210938 7.96875 -26.546875 L 6.453125 -30.328125 C 8.054688 -31.203125 9.8125 -31.882812 11.71875 -32.375 C 13.632812 -32.875 15.554688 -33.125 17.484375 -33.125 C 21.367188 -33.125 24.242188 -32.257812 26.109375 -30.53125 C 27.984375 -28.8125 28.921875 -26.046875 28.921875 -22.234375 L 28.921875 0 Z M 14.125 -3.484375 C 17.195312 -3.484375 19.609375 -4.320312 21.359375 -6 C 23.117188 -7.6875 24 -10.046875 24 -13.078125 L 24 -16.03125 L 19.0625 -15.8125 C 15.132812 -15.675781 12.300781 -15.066406 10.5625 -13.984375 C 8.832031 -12.910156 7.96875 -11.234375 7.96875 -8.953125 C 7.96875 -7.160156 8.503906 -5.800781 9.578125 -4.875 C 10.660156 -3.945312 12.175781 -3.484375 14.125 -3.484375 Z M 14.125 -3.484375 "/></g></g></g><g fill="#73c8d2" fill-opacity="1"><g transform="translate(57.805364, 63.861505)"><g><path d="M 26.25 -8.890625 C 26.25 -5.859375 25.117188 -3.519531 22.859375 -1.875 C 20.597656 -0.226562 17.425781 0.59375 13.34375 0.59375 C 9.03125 0.59375 5.660156 -0.0859375 3.234375 -1.453125 L 3.234375 -6.03125 C 4.804688 -5.238281 6.488281 -4.613281 8.28125 -4.15625 C 10.070312 -3.707031 11.800781 -3.484375 13.46875 -3.484375 C 16.039062 -3.484375 18.019531 -3.894531 19.40625 -4.71875 C 20.800781 -5.539062 21.5 -6.789062 21.5 -8.46875 C 21.5 -9.738281 20.945312 -10.820312 19.84375 -11.71875 C 18.75 -12.625 16.601562 -13.691406 13.40625 -14.921875 C 10.375 -16.054688 8.21875 -17.039062 6.9375 -17.875 C 5.664062 -18.71875 4.71875 -19.675781 4.09375 -20.75 C 3.46875 -21.820312 3.15625 -23.101562 3.15625 -24.59375 C 3.15625 -27.25 4.234375 -29.34375 6.390625 -30.875 C 8.554688 -32.414062 11.519531 -33.1875 15.28125 -33.1875 C 18.789062 -33.1875 22.21875 -32.472656 25.5625 -31.046875 L 23.8125 -27.03125 C 20.539062 -28.375 17.578125 -29.046875 14.921875 -29.046875 C 12.585938 -29.046875 10.820312 -28.675781 9.625 -27.9375 C 8.4375 -27.207031 7.84375 -26.203125 7.84375 -24.921875 C 7.84375 -24.046875 8.066406 -23.300781 8.515625 -22.6875 C 8.960938 -22.070312 9.679688 -21.484375 10.671875 -20.921875 C 11.660156 -20.367188 13.5625 -19.566406 16.375 -18.515625 C 20.25 -17.109375 22.863281 -15.691406 24.21875 -14.265625 C 25.570312 -12.835938 26.25 -11.046875 26.25 -8.890625 Z M 26.25 -8.890625 "/></g></g></g><g fill="#73c8d2" fill-opacity="1"><g transform="translate(86.850565, 63.861505)"><g><path d="M 25.265625 0 L 24.296875 -4.640625 L 24.046875 -4.640625 C 22.421875 -2.597656 20.800781 -1.210938 19.1875 -0.484375 C 17.570312 0.234375 15.554688 0.59375 13.140625 0.59375 C 9.910156 0.59375 7.378906 -0.238281 5.546875 -1.90625 C 3.710938 -3.570312 2.796875 -5.941406 2.796875 -9.015625 C 2.796875 -15.585938 8.054688 -19.035156 18.578125 -19.359375 L 24.109375 -19.53125 L 24.109375 -21.5625 C 24.109375 -24.113281 23.554688 -26 22.453125 -27.21875 C 21.359375 -28.4375 19.601562 -29.046875 17.1875 -29.046875 C 14.46875 -29.046875 11.394531 -28.210938 7.96875 -26.546875 L 6.453125 -30.328125 C 8.054688 -31.203125 9.8125 -31.882812 11.71875 -32.375 C 13.632812 -32.875 15.554688 -33.125 17.484375 -33.125 C 21.367188 -33.125 24.242188 -32.257812 26.109375 -30.53125 C 27.984375 -28.8125 28.921875 -26.046875 28.921875 -22.234375 L 28.921875 0 Z M 14.125 -3.484375 C 17.195312 -3.484375 19.609375 -4.320312 21.359375 -6 C 23.117188 -7.6875 24 -10.046875 24 -13.078125 L 24 -16.03125 L 19.0625 -15.8125 C 15.132812 -15.675781 12.300781 -15.066406 10.5625 -13.984375 C 8.832031 -12.910156 7.96875 -11.234375 7.96875 -8.953125 C 7.96875 -7.160156 8.503906 -5.800781 9.578125 -4.875 C 10.660156 -3.945312 12.175781 -3.484375 14.125 -3.484375 Z M 14.125 -3.484375 "/></g></g></g><g fill="#ff9013" fill-opacity="1"><g transform="translate(120.727975, 63.861505)"><g><path d="M 24.59375 -39.578125 C 19.8125 -39.578125 16.035156 -37.984375 13.265625 -34.796875 C 10.503906 -31.617188 9.125 -27.265625 9.125 -21.734375 C 9.125 -16.046875 10.457031 -11.648438 13.125 -8.546875 C 15.789062 -5.441406 19.59375 -3.890625 24.53125 -3.890625 C 27.5625 -3.890625 31.019531 -4.4375 34.90625 -5.53125 L 34.90625 -1.09375 C 31.894531 0.03125 28.175781 0.59375 23.75 0.59375 C 17.351562 0.59375 12.414062 -1.347656 8.9375 -5.234375 C 5.457031 -9.117188 3.71875 -14.640625 3.71875 -21.796875 C 3.71875 -26.273438 4.550781 -30.195312 6.21875 -33.5625 C 7.894531 -36.9375 10.3125 -39.535156 13.46875 -41.359375 C 16.632812 -43.179688 20.359375 -44.09375 24.640625 -44.09375 C 29.203125 -44.09375 33.1875 -43.257812 36.59375 -41.59375 L 34.453125 -37.25 C 31.171875 -38.800781 27.882812 -39.578125 24.59375 -39.578125 Z M 24.59375 -39.578125 "/></g></g></g><g fill="#ff9013" fill-opacity="1"><g transform="translate(159.137786, 63.861505)"><g><path d="M 33.359375 -16.328125 C 33.359375 -11.015625 32.019531 -6.863281 29.34375 -3.875 C 26.664062 -0.894531 22.96875 0.59375 18.25 0.59375 C 15.34375 0.59375 12.757812 -0.0859375 10.5 -1.453125 C 8.238281 -2.828125 6.492188 -4.789062 5.265625 -7.34375 C 4.035156 -9.894531 3.421875 -12.890625 3.421875 -16.328125 C 3.421875 -21.640625 4.75 -25.773438 7.40625 -28.734375 C 10.0625 -31.703125 13.75 -33.1875 18.46875 -33.1875 C 23.019531 -33.1875 26.640625 -31.664062 29.328125 -28.625 C 32.015625 -25.59375 33.359375 -21.492188 33.359375 -16.328125 Z M 8.53125 -16.328125 C 8.53125 -12.160156 9.363281 -8.984375 11.03125 -6.796875 C 12.695312 -4.617188 15.144531 -3.53125 18.375 -3.53125 C 21.601562 -3.53125 24.054688 -4.613281 25.734375 -6.78125 C 27.410156 -8.957031 28.25 -12.140625 28.25 -16.328125 C 28.25 -20.460938 27.410156 -23.601562 25.734375 -25.75 C 24.054688 -27.90625 21.582031 -28.984375 18.3125 -28.984375 C 15.082031 -28.984375 12.644531 -27.921875 11 -25.796875 C 9.351562 -23.679688 8.53125 -20.523438 8.53125 -16.328125 Z M 8.53125 -16.328125 "/></g></g></g><g fill="#ff9013" fill-opacity="1"><g transform="translate(195.912517, 63.861505)"><g><path d="M 27.53125 0 L 27.53125 -21.078125 C 27.53125 -23.734375 26.925781 -25.710938 25.71875 -27.015625 C 24.507812 -28.328125 22.617188 -28.984375 20.046875 -28.984375 C 16.628906 -28.984375 14.128906 -28.0625 12.546875 -26.21875 C 10.960938 -24.375 10.171875 -21.332031 10.171875 -17.09375 L 10.171875 0 L 5.234375 0 L 5.234375 -32.59375 L 9.25 -32.59375 L 10.046875 -28.125 L 10.28125 -28.125 C 11.289062 -29.726562 12.707031 -30.972656 14.53125 -31.859375 C 16.363281 -32.742188 18.398438 -33.1875 20.640625 -33.1875 C 24.554688 -33.1875 27.503906 -32.238281 29.484375 -30.34375 C 31.472656 -28.445312 32.46875 -25.421875 32.46875 -21.265625 L 32.46875 0 Z M 27.53125 0 "/></g></g></g><g fill="#ff9013" fill-opacity="1"><g transform="translate(233.281826, 63.861505)"><g><path d="M 27.53125 0 L 27.53125 -21.078125 C 27.53125 -23.734375 26.925781 -25.710938 25.71875 -27.015625 C 24.507812 -28.328125 22.617188 -28.984375 20.046875 -28.984375 C 16.628906 -28.984375 14.128906 -28.0625 12.546875 -26.21875 C 10.960938 -24.375 10.171875 -21.332031 10.171875 -17.09375 L 10.171875 0 L 5.234375 0 L 5.234375 -32.59375 L 9.25 -32.59375 L 10.046875 -28.125 L 10.28125 -28.125 C 11.289062 -29.726562 12.707031 -30.972656 14.53125 -31.859375 C 16.363281 -32.742188 18.398438 -33.1875 20.640625 -33.1875 C 24.554688 -33.1875 27.503906 -32.238281 29.484375 -30.34375 C 31.472656 -28.445312 32.46875 -25.421875 32.46875 -21.265625 L 32.46875 0 Z M 27.53125 0 "/></g></g></g><g fill="#ff9013" fill-opacity="1"><g transform="translate(270.651136, 63.861505)"><g><path d="M 19 0.59375 C 14.1875 0.59375 10.382812 -0.867188 7.59375 -3.796875 C 4.8125 -6.734375 3.421875 -10.8125 3.421875 -16.03125 C 3.421875 -21.28125 4.710938 -25.453125 7.296875 -28.546875 C 9.878906 -31.640625 13.351562 -33.1875 17.71875 -33.1875 C 21.800781 -33.1875 25.03125 -31.84375 27.40625 -29.15625 C 29.789062 -26.46875 30.984375 -22.921875 30.984375 -18.515625 L 30.984375 -15.40625 L 8.53125 -15.40625 C 8.632812 -11.570312 9.601562 -8.664062 11.4375 -6.6875 C 13.269531 -4.707031 15.847656 -3.71875 19.171875 -3.71875 C 22.679688 -3.71875 26.148438 -4.453125 29.578125 -5.921875 L 29.578125 -1.515625 C 27.835938 -0.765625 26.1875 -0.226562 24.625 0.09375 C 23.070312 0.425781 21.195312 0.59375 19 0.59375 Z M 17.65625 -29.046875 C 15.039062 -29.046875 12.953125 -28.191406 11.390625 -26.484375 C 9.835938 -24.785156 8.925781 -22.429688 8.65625 -19.421875 L 25.6875 -19.421875 C 25.6875 -22.523438 24.992188 -24.90625 23.609375 -26.5625 C 22.222656 -28.21875 20.238281 -29.046875 17.65625 -29.046875 Z M 17.65625 -29.046875 "/></g></g></g><g fill="#ff9013" fill-opacity="1"><g transform="translate(304.809718, 63.861505)"><g><path d="M 18.25 0.59375 C 13.53125 0.59375 9.878906 -0.851562 7.296875 -3.75 C 4.710938 -6.65625 3.421875 -10.765625 3.421875 -16.078125 C 3.421875 -21.535156 4.734375 -25.75 7.359375 -28.71875 C 9.984375 -31.695312 13.722656 -33.1875 18.578125 -33.1875 C 20.148438 -33.1875 21.71875 -33.015625 23.28125 -32.671875 C 24.84375 -32.335938 26.070312 -31.941406 26.96875 -31.484375 L 25.453125 -27.296875 C 24.359375 -27.734375 23.164062 -28.09375 21.875 -28.375 C 20.59375 -28.664062 19.457031 -28.8125 18.46875 -28.8125 C 11.84375 -28.8125 8.53125 -24.585938 8.53125 -16.140625 C 8.53125 -12.140625 9.335938 -9.066406 10.953125 -6.921875 C 12.566406 -4.785156 14.960938 -3.71875 18.140625 -3.71875 C 20.847656 -3.71875 23.628906 -4.300781 26.484375 -5.46875 L 26.484375 -1.09375 C 24.304688 0.03125 21.5625 0.59375 18.25 0.59375 Z M 18.25 0.59375 "/></g></g></g><g fill="#ff9013" fill-opacity="1"><g transform="translate(333.795461, 63.861505)"><g><path d="M 15.765625 -3.484375 C 16.628906 -3.484375 17.46875 -3.546875 18.28125 -3.671875 C 19.09375 -3.796875 19.738281 -3.929688 20.21875 -4.078125 L 20.21875 -0.296875 C 19.6875 -0.0351562 18.898438 0.175781 17.859375 0.34375 C 16.816406 0.507812 15.878906 0.59375 15.046875 0.59375 C 8.742188 0.59375 5.59375 -2.722656 5.59375 -9.359375 L 5.59375 -28.75 L 0.921875 -28.75 L 0.921875 -31.125 L 5.59375 -33.1875 L 7.671875 -40.140625 L 10.53125 -40.140625 L 10.53125 -32.59375 L 19.984375 -32.59375 L 19.984375 -28.75 L 10.53125 -28.75 L 10.53125 -9.578125 C 10.53125 -7.609375 10.992188 -6.097656 11.921875 -5.046875 C 12.847656 -4.003906 14.128906 -3.484375 15.765625 -3.484375 Z M 15.765625 -3.484375 "/></g></g></g><g clip-path="url(#d28998ad1f)"><path fill="#00cc00" d="M 197.023438 48.824219 C 197.023438 49.425781 196.996094 50.027344 196.9375 50.628906 C 196.878906 51.226562 196.789062 51.824219 196.671875 52.414062 C 196.554688 53.007812 196.40625 53.589844 196.230469 54.167969 C 196.058594 54.746094 195.855469 55.3125 195.625 55.871094 C 195.390625 56.425781 195.136719 56.972656 194.851562 57.503906 C 194.566406 58.035156 194.257812 58.550781 193.921875 59.054688 C 193.585938 59.554688 193.226562 60.039062 192.84375 60.503906 C 192.460938 60.972656 192.058594 61.417969 191.632812 61.84375 C 191.203125 62.269531 190.757812 62.675781 190.292969 63.058594 C 189.824219 63.441406 189.34375 63.800781 188.839844 64.132812 C 188.339844 64.46875 187.824219 64.777344 187.289062 65.0625 C 186.757812 65.347656 186.214844 65.605469 185.65625 65.835938 C 185.101562 66.066406 184.53125 66.269531 183.957031 66.445312 C 183.378906 66.621094 182.792969 66.765625 182.203125 66.882812 C 181.609375 67 181.015625 67.089844 180.414062 67.148438 C 179.816406 67.207031 179.214844 67.238281 178.609375 67.238281 C 178.007812 67.238281 177.40625 67.207031 176.804688 67.148438 C 176.203125 67.089844 175.609375 67 175.015625 66.882812 C 174.425781 66.765625 173.839844 66.621094 173.265625 66.445312 C 172.6875 66.269531 172.121094 66.066406 171.5625 65.835938 C 171.003906 65.605469 170.460938 65.347656 169.929688 65.0625 C 169.398438 64.777344 168.878906 64.46875 168.378906 64.132812 C 167.878906 63.800781 167.394531 63.441406 166.925781 63.058594 C 166.460938 62.675781 166.015625 62.269531 165.589844 61.84375 C 165.160156 61.417969 164.757812 60.972656 164.375 60.503906 C 163.992188 60.039062 163.632812 59.554688 163.296875 59.054688 C 162.964844 58.550781 162.652344 58.035156 162.371094 57.503906 C 162.085938 56.972656 161.828125 56.425781 161.597656 55.871094 C 161.367188 55.3125 161.164062 54.746094 160.988281 54.167969 C 160.8125 53.589844 160.667969 53.007812 160.546875 52.414062 C 160.429688 51.824219 160.34375 51.226562 160.285156 50.628906 C 160.222656 50.027344 160.195312 49.425781 160.195312 48.824219 C 160.195312 48.21875 160.222656 47.617188 160.285156 47.015625 C 160.34375 46.417969 160.429688 45.820312 160.546875 45.230469 C 160.667969 44.636719 160.8125 44.054688 160.988281 43.476562 C 161.164062 42.898438 161.367188 42.332031 161.597656 41.773438 C 161.828125 41.21875 162.085938 40.671875 162.371094 40.140625 C 162.652344 39.609375 162.964844 39.09375 163.296875 38.589844 C 163.632812 38.089844 163.992188 37.605469 164.375 37.140625 C 164.757812 36.671875 165.160156 36.226562 165.589844 35.800781 C 166.015625 35.375 166.460938 34.96875 166.925781 34.585938 C 167.394531 34.203125 167.878906 33.847656 168.378906 33.511719 C 168.878906 33.175781 169.398438 32.867188 169.929688 32.582031 C 170.460938 32.296875 171.003906 32.039062 171.5625 31.808594 C 172.121094 31.578125 172.6875 31.375 173.265625 31.199219 C 173.839844 31.023438 174.425781 30.878906 175.015625 30.761719 C 175.609375 30.644531 176.203125 30.554688 176.804688 30.496094 C 177.40625 30.4375 178.007812 30.40625 178.609375 30.40625 C 179.214844 30.40625 179.816406 30.4375 180.414062 30.496094 C 181.015625 30.554688 181.609375 30.644531 182.203125 30.761719 C 182.792969 30.878906 183.378906 31.023438 183.957031 31.199219 C 184.53125 31.375 185.101562 31.578125 185.65625 31.808594 C 186.214844 32.039062 186.757812 32.296875 187.289062 32.582031 C 187.824219 32.867188 188.339844 33.175781 188.839844 33.511719 C 189.34375 33.847656 189.824219 34.203125 190.292969 34.585938 C 190.757812 34.96875 191.203125 35.375 191.632812 35.800781 C 192.058594 36.226562 192.460938 36.671875 192.84375 37.140625 C 193.226562 37.605469 193.585938 38.089844 193.921875 38.589844 C 194.257812 39.09375 194.566406 39.609375 194.851562 40.140625 C 195.136719 40.671875 195.390625 41.21875 195.625 41.773438 C 195.855469 42.332031 196.058594 42.898438 196.230469 43.476562 C 196.40625 44.054688 196.554688 44.636719 196.671875 45.230469 C 196.789062 45.820312 196.878906 46.417969 196.9375 47.015625 C 196.996094 47.617188 197.023438 48.21875 197.023438 48.824219 Z M 197.023438 48.824219 " fill-opacity="1" fill-rule="nonzero"/></g><path fill="#ffffff" d="M 191.601562 39.722656 C 190.644531 38.769531 189.089844 38.769531 188.132812 39.722656 L 175.121094 52.738281 L 169.085938 46.703125 C 168.128906 45.75 166.574219 45.75 165.617188 46.703125 C 164.664062 47.660156 164.664062 49.214844 165.617188 50.171875 L 173.296875 57.847656 C 173.320312 57.882812 173.355469 57.90625 173.386719 57.9375 C 173.867188 58.417969 174.492188 58.660156 175.121094 58.652344 C 175.746094 58.652344 176.378906 58.410156 176.851562 57.9375 C 176.886719 57.90625 176.910156 57.882812 176.941406 57.847656 L 191.601562 43.191406 C 192.554688 42.234375 192.554688 40.679688 191.601562 39.722656 Z M 191.601562 39.722656 " fill-opacity="1" fill-rule="nonzero"/></g></g><path fill="#000000" d="M -16.652344 199.347656 L -16.777344 198.867188 L 0.0742188 229.457031 L -0.785156 228.945312 L 265.515625 229.082031 C 266.058594 229.082031 266.5 229.527344 266.5 230.074219 C 266.5 230.625 266.058594 231.066406 265.515625 231.066406 L -0.789062 230.929688 C -1.144531 230.929688 -1.476562 230.734375 -1.648438 230.417969 L -18.496094 199.832031 C -18.578125 199.683594 -18.621094 199.519531 -18.621094 199.347656 C -18.621094 198.800781 -18.179688 198.355469 -17.636719 198.355469 C -17.09375 198.355469 -16.652344 198.800781 -16.652344 199.347656 Z M -16.652344 199.347656 " fill-opacity="0.996" fill-rule="nonzero"/><g clip-path="url(#0cce982b50)"><path fill="#000000" d="M 272.675781 229.699219 C 272.675781 232.097656 270.742188 234.042969 268.363281 234.042969 C 265.980469 234.042969 264.046875 232.097656 264.046875 229.699219 C 264.046875 227.296875 265.980469 225.351562 268.363281 225.351562 C 270.742188 225.351562 272.675781 227.296875 272.675781 229.699219 Z M 272.675781 229.699219 " fill-opacity="1" fill-rule="nonzero"/></g></svg>